<?xml version="1.0" encoding="UTF-8"?>
<!DOCTYPE svg PUBLIC "-//W3C//DTD SVG 1.1//EN" "http://www.w3.org/Graphics/SVG/1.1/DTD/svg11.dtd">
<!-- Creator: CorelDRAW -->
<svg xmlns="http://www.w3.org/2000/svg" xml:space="preserve" width="75.6226mm" height="109.684mm" version="1.1" style="shape-rendering:geometricPrecision; text-rendering:geometricPrecision; image-rendering:optimizeQuality; fill-rule:evenodd; clip-rule:evenodd"
viewBox="0 0 6866.66 9959.49"
 xmlns:xlink="http://www.w3.org/1999/xlink"
 xmlns:xodm="http://www.corel.com/coreldraw/odm/2003">
 <defs>
  <style type="text/css">
   <![CDATA[
    .fil0 {fill:#00BAF4}
    .fil1 {fill:black;fill-rule:nonzero}
   ]]>
  </style>
 </defs>
 <g id="Camada_x0020_1">
  <metadata id="CorelCorpID_0Corel-Layer"/>
  <path class="fil0" d="M6776.57 1415.89c-199.46,-397.47 -696.68,-603.89 -1376.14,-598.96 380.99,41.79 656.71,197.05 775.85,434.35 332.19,661.7 -694.8,1848.73 -2293.65,2651.32 -1598.92,802.51 -3164.36,916.71 -3496.51,255.03 -148.22,-295.31 -25.81,-695.16 297.27,-1118.8 -587.92,615.83 -752.76,1248.22 -524.72,1702.56 189.23,376.88 653.33,575.58 1268.98,601.55 967.6,1446.11 4764.55,1217.81 4653.14,-2035.22 654.96,-682.1 948.42,-1388.73 695.79,-1891.83zm-3243.1 1611.25l631.47 0 0 -631.47 -631.49 -0.01 0.02 631.48zm-789.35 0.02l631.48 -0.02 -0.01 -631.48 -631.49 0.01 0.02 631.49zm-0.02 796.29c205.26,-66.69 417.12,-148.25 631.5,-244.33l-0.02 -379.7 -631.48 -0.04 0 624.06zm789.35 -317.45c195.51,-93.63 388.13,-196.17 574.5,-306.61l-574.48 0 -0.03 306.61zm1513.33 -2478.91l-1177.65 -907.05c-200.57,-154.44 -471.03,-165.56 -662.56,0.03l-879.1 760.01 0.01 -493.32 -1049.08 0 -0.02 1400.23 -1278.38 1105.2 907.02 0.51c-199.95,296.46 -267.59,570.4 -163.72,777.35 120.34,239.73 448.9,350.24 895,338.46 -64.18,-191.41 -98.96,-396.18 -98.95,-609.13 -0.02,-1057.74 857.45,-1915.25 1915.17,-1915.25 692.85,0 1299.71,367.93 1636.07,919.05 389.33,-433.13 537.13,-928.66 -43.81,-1376.09zm-2314.22 4162.79c899.26,-223.52 1810.67,-657.98 2561.08,-1203.06 -342.41,1072.76 -1529.26,1619.69 -2561.08,1203.06z"/>
  <path class="fil1" d="M1385.85 6683.98c4.43,7.39 8.87,17.37 13.3,29.95 4.44,12.57 6.66,26.25 6.66,41.03 0,25.14 -5.91,45.11 -17.74,59.89 -11.83,14.79 -28.84,22.18 -51.02,22.18l-603.38 0 0 461.41 574.54 0c4.44,7.39 8.87,17.37 13.31,29.95 4.43,12.57 6.66,26.25 6.66,41.03 0,25.14 -5.92,45.11 -17.75,59.89 -11.83,14.79 -28.84,22.18 -51.02,22.18l-525.73 0 0 578.98c-7.39,2.95 -18.85,5.91 -34.38,8.87 -15.53,2.96 -31.43,4.44 -47.7,4.44 -66.55,0 -99.82,-26.62 -99.82,-79.86l0 -1182.35c0,-29.58 8.87,-53.24 26.61,-70.99 17.75,-17.74 41.41,-26.61 70.99,-26.61l736.47 0zm581.19 1233.36c62.11,0 113.5,-6.28 154.17,-18.85 40.67,-12.58 69.87,-24.77 87.62,-36.6l0 -321.66 -275.07 28.84c-76.91,7.4 -133.84,24.77 -170.82,52.13 -36.97,27.36 -55.45,67.66 -55.45,120.9 0,56.2 21.44,99.45 64.33,129.76 42.89,30.32 107.95,45.47 195.21,45.47zm-2.22 -938.34c128.66,0 230.7,28.84 306.12,86.52 75.42,57.68 113.13,148.62 113.13,272.85l0 525.73c0,32.53 -6.28,57.3 -18.85,74.31 -12.58,17.01 -31.43,32.91 -56.57,47.7 -35.49,20.7 -82.45,38.82 -140.86,54.34 -58.41,15.53 -125.33,23.29 -200.75,23.29 -139.01,0 -246.6,-27.36 -322.76,-82.08 -76.16,-54.72 -114.24,-133.83 -114.24,-237.36 0,-97.6 31.8,-171.18 95.39,-220.72 63.59,-49.54 153.06,-80.22 268.41,-92.05l315 -31.06 0 -62.11c0,-73.94 -22.18,-127.92 -66.55,-161.94 -44.37,-34.01 -104.26,-51.02 -179.69,-51.02 -62.11,0 -120.52,8.87 -175.24,26.62 -54.72,17.74 -103.52,37.71 -146.41,59.89 -11.83,-10.35 -22.56,-22.18 -32.16,-35.49 -9.62,-13.31 -14.42,-28.09 -14.42,-44.37 0,-20.7 5.18,-37.71 15.53,-51.02 10.35,-13.31 26.61,-25.88 48.8,-37.71 39.93,-20.7 85.78,-36.6 137.54,-47.69 51.76,-11.1 107.95,-16.64 168.59,-16.64zm712.07 893.97c45.85,-62.11 93.91,-122.75 144.19,-181.89 50.28,-59.16 100.56,-119.79 150.84,-181.9 -62.11,-75.42 -119.79,-146.77 -173.02,-214.07 -53.24,-67.28 -107.95,-137.17 -164.15,-209.62 5.91,-29.57 16.63,-52.5 32.16,-68.76 15.53,-16.27 35.86,-24.41 61,-24.41 25.14,0 44.74,6.28 58.79,18.86 14.05,12.57 29.21,29.2 45.47,49.91 38.45,51.76 78.02,106.85 118.68,165.26 40.67,58.41 83.19,116.46 127.56,174.13 54.72,-69.5 106.47,-135.69 155.28,-198.53 48.8,-62.85 99.08,-131.99 150.84,-207.41 7.39,-1.48 15.53,-2.22 24.4,-2.22 31.06,0 55.46,7.03 73.2,21.08 17.75,14.05 26.62,32.91 26.62,56.57 0,16.26 -3.33,31.79 -9.99,46.58 -6.65,14.79 -17.37,31.8 -32.16,51.02 -45.85,56.2 -92.8,113.5 -140.86,171.91 -48.06,58.41 -95.76,115.73 -143.08,171.91 57.68,75.43 115.72,149.74 174.13,222.95 58.41,73.2 116.46,146.77 174.14,220.71 -2.96,28.1 -12.58,50.29 -28.84,66.55 -16.27,16.27 -37.71,24.41 -64.33,24.41 -25.14,0 -45.47,-6.28 -61,-18.86 -15.53,-12.57 -33.64,-32.16 -54.34,-58.79 -39.93,-53.24 -80.97,-109.81 -123.12,-169.7 -42.15,-59.89 -83.93,-117.93 -125.33,-174.13 -51.76,68.03 -103.89,137.53 -156.39,208.52 -52.5,70.99 -103.15,141.23 -151.96,210.74l-31.05 0c-34.01,0 -59.52,-7.4 -76.53,-22.19 -17.01,-14.78 -25.52,-33.27 -25.52,-55.45 0,-11.83 2.59,-24.04 7.76,-36.6 5.18,-12.57 17.38,-31.43 36.6,-56.57zm1288.83 155.28c-7.39,2.96 -18.49,6.29 -33.27,9.99 -14.79,3.7 -31.06,5.55 -48.81,5.55 -63.59,0 -95.39,-26.62 -95.39,-79.86l0 -951.65c7.39,-2.96 18.86,-6.28 34.39,-9.98 15.53,-3.7 32.16,-5.55 49.9,-5.55 62.12,0 93.17,27.36 93.17,82.08l0 949.42zm-204.09 -1344.27c0,-31.06 10.72,-57.3 32.17,-78.75 21.44,-21.45 49.17,-32.16 83.18,-32.16 34.01,0 61.37,10.71 82.08,32.16 20.7,21.45 31.05,47.69 31.05,78.75 0,31.05 -10.35,57.3 -31.05,78.74 -20.7,21.45 -48.06,32.17 -82.08,32.17 -34.01,0 -61.75,-10.72 -83.18,-32.17 -21.45,-21.44 -32.17,-47.69 -32.17,-78.74zm1259.99 681.01c0,-82.82 -23.3,-143.45 -69.88,-181.9 -46.58,-38.45 -109.06,-57.68 -187.44,-57.68 -59.16,0 -111.66,7.4 -157.5,22.18 -45.84,14.79 -85.03,31.8 -117.56,51.02l0 829.64c-7.4,2.96 -18.49,6.29 -33.28,9.99 -14.79,3.7 -31.05,5.55 -48.81,5.55 -63.59,0 -95.38,-26.62 -95.38,-79.86l0 -756.44c0,-31.05 6.28,-56.56 18.85,-76.53 12.57,-19.97 34.39,-39.56 65.44,-58.79 38.45,-23.66 89.47,-45.1 153.06,-64.33 63.59,-19.22 135.31,-28.84 215.17,-28.84 134.58,0 240.68,30.32 318.32,90.96 77.64,60.63 116.46,156.02 116.46,286.15l0 672.14c-7.4,2.96 -18.86,6.29 -34.39,9.99 -15.53,3.7 -31.43,5.55 -47.7,5.55 -63.59,0 -95.38,-26.62 -95.38,-79.86l0 -598.94zm876.21 552.35c62.11,0 113.5,-6.28 154.17,-18.85 40.67,-12.58 69.87,-24.77 87.62,-36.6l0 -321.66 -275.07 28.84c-76.9,7.4 -133.83,24.77 -170.81,52.13 -36.97,27.36 -55.45,67.66 -55.45,120.9 0,56.2 21.44,99.45 64.33,129.76 42.89,30.32 107.95,45.47 195.2,45.47zm-2.22 -938.34c128.66,0 230.7,28.84 306.12,86.52 75.42,57.68 113.13,148.62 113.13,272.85l0 525.73c0,32.53 -6.28,57.3 -18.85,74.31 -12.58,17.01 -31.43,32.91 -56.57,47.7 -35.49,20.7 -82.45,38.82 -140.86,54.34 -58.41,15.53 -125.33,23.29 -200.75,23.29 -139,0 -246.59,-27.36 -322.75,-82.08 -76.16,-54.72 -114.24,-133.83 -114.24,-237.36 0,-97.6 31.8,-171.18 95.39,-220.72 63.59,-49.54 153.06,-80.22 268.4,-92.05l315 -31.06 0 -62.11c0,-73.94 -22.18,-127.92 -66.55,-161.94 -44.37,-34.01 -104.26,-51.02 -179.69,-51.02 -62.11,0 -120.51,8.87 -175.23,26.62 -54.72,17.74 -103.52,37.71 -146.41,59.89 -11.83,-10.35 -22.56,-22.18 -32.16,-35.49 -9.62,-13.31 -14.42,-28.09 -14.42,-44.37 0,-20.7 5.18,-37.71 15.53,-51.02 10.35,-13.31 26.61,-25.88 48.8,-37.71 39.93,-20.7 85.78,-36.6 137.54,-47.69 51.76,-11.1 107.95,-16.64 168.58,-16.64z"/>
  <path class="fil1" d="M1946.11 9240.57c37.13,0 73.83,-3.8 110.12,-11.4 36.28,-7.59 63.72,-17.3 82.28,-29.11l0 -232.89 -207.58 17.72c-54,5.07 -97.46,17.3 -130.36,36.71 -32.91,19.4 -49.36,48.52 -49.36,87.33 0,40.5 15.18,72.57 45.56,96.2 30.37,23.63 80.16,35.44 149.35,35.44zm-15.19 -1010.04c87.76,0 167.5,8.86 239.23,26.58 71.72,17.72 132.9,45.15 183.53,82.28 50.62,37.13 89.87,84.38 117.71,141.76 27.85,57.38 41.77,124.88 41.77,202.52l0 572.1c0,43.88 -11.39,78.9 -34.17,105.06 -22.78,26.16 -50.21,48.52 -82.28,67.08 -52.31,32.06 -116.44,56.53 -192.39,73.41 -75.94,16.87 -162.01,25.32 -258.2,25.32 -173.82,0 -312.2,-33.33 -415.15,-99.99 -102.94,-66.67 -154.42,-168.35 -154.42,-305.04 0,-116.44 34.6,-205.05 103.8,-265.8 69.19,-60.76 175.51,-98.72 318.96,-113.91l336.67 -35.44 0 -27.85c0,-54 -21.94,-93.66 -65.81,-118.98 -43.88,-25.32 -107.16,-37.96 -189.86,-37.96 -64.13,0 -127,7.59 -188.6,22.78 -61.6,15.18 -116.86,32.91 -165.8,53.16 -20.26,-13.5 -37.56,-34.17 -51.89,-62.02 -14.35,-27.85 -21.52,-57.8 -21.52,-89.87 0,-74.26 38.82,-127.41 116.44,-159.48 48.94,-18.56 105.9,-32.48 170.87,-41.77 64.98,-9.28 128.68,-13.92 191.12,-13.92zm1473.29 1293.56c-43.88,0 -84.37,-3.8 -121.5,-11.4 -37.13,-7.59 -70.88,-17.3 -101.26,-29.11l0 453.13c-16.87,5.06 -40.5,10.12 -70.88,15.19 -30.37,5.06 -64.12,7.59 -101.25,7.59 -75.95,0 -130.79,-12.66 -164.54,-37.97 -33.75,-25.32 -50.63,-73.41 -50.63,-144.29l0 -1253.06c0,-43.88 9.28,-79.73 27.85,-107.58 18.56,-27.85 44.72,-52.74 78.47,-74.68 50.63,-32.07 115.6,-58.65 194.92,-79.74 79.32,-21.09 167.07,-31.64 263.26,-31.64 97.88,0 187.75,12.24 269.6,36.71 81.85,24.46 152.31,62.86 211.38,115.17 59.07,52.32 105.05,118.98 137.96,199.98 32.92,81.01 49.37,177.2 49.37,288.59 0,106.32 -15.61,200.41 -46.84,282.26 -31.22,81.85 -74.68,150.2 -130.36,205.04 -55.7,54.85 -121.51,96.2 -197.46,124.04 -75.94,27.84 -158.63,41.77 -248.08,41.77zm-58.22 -306.3c91.14,0 161.59,-28.69 211.38,-86.07 49.79,-57.38 74.68,-144.29 74.68,-260.74 0,-119.82 -24.04,-205.89 -72.14,-258.2 -48.1,-52.32 -115.18,-78.48 -201.25,-78.48 -38.81,0 -72.57,4.65 -101.25,13.93 -28.69,9.28 -54.85,19.83 -78.48,31.64l0 594.88c23.63,13.5 48.94,24.05 75.95,31.64 27,7.6 57.38,11.4 91.13,11.4zm1521.38 306.3c-43.88,0 -84.37,-3.8 -121.5,-11.4 -37.13,-7.59 -70.88,-17.3 -101.26,-29.11l0 453.13c-16.87,5.06 -40.5,10.12 -70.88,15.19 -30.37,5.06 -64.12,7.59 -101.25,7.59 -75.95,0 -130.79,-12.66 -164.54,-37.97 -33.75,-25.32 -50.63,-73.41 -50.63,-144.29l0 -1253.06c0,-43.88 9.28,-79.73 27.85,-107.58 18.56,-27.85 44.72,-52.74 78.47,-74.68 50.63,-32.07 115.6,-58.65 194.92,-79.74 79.32,-21.09 167.07,-31.64 263.26,-31.64 97.88,0 187.75,12.24 269.6,36.71 81.85,24.46 152.31,62.86 211.38,115.17 59.07,52.32 105.05,118.98 137.96,199.98 32.92,81.01 49.37,177.2 49.37,288.59 0,106.32 -15.61,200.41 -46.84,282.26 -31.22,81.85 -74.68,150.2 -130.36,205.04 -55.7,54.85 -121.51,96.2 -197.46,124.04 -75.94,27.84 -158.63,41.77 -248.08,41.77zm-58.22 -306.3c91.14,0 161.59,-28.69 211.38,-86.07 49.79,-57.38 74.68,-144.29 74.68,-260.74 0,-119.82 -24.04,-205.89 -72.14,-258.2 -48.1,-52.32 -115.18,-78.48 -201.25,-78.48 -38.81,0 -72.57,4.65 -101.25,13.93 -28.69,9.28 -54.85,19.83 -78.48,31.64l0 594.88c23.63,13.5 48.94,24.05 75.95,31.64 27,7.6 57.38,11.4 91.13,11.4z"/>
 </g>
</svg>
