<?xml version="1.0" standalone="no"?>
<!DOCTYPE svg PUBLIC "-//W3C//DTD SVG 20010904//EN"
 "http://www.w3.org/TR/2001/REC-SVG-20010904/DTD/svg10.dtd">
<svg version="1.0" xmlns="http://www.w3.org/2000/svg"
 width="512.000000pt" height="512.000000pt" viewBox="0 0 512.000000 512.000000"
 preserveAspectRatio="xMidYMid meet">

<g transform="translate(0.000000,512.000000) scale(0.100000,-0.100000)"
fill="#000000" stroke="none">
<path d="M2157 5109 c-10 -6 -27 -25 -37 -42 -17 -27 -24 -31 -57 -29 -50 3
-98 -27 -112 -70 -8 -24 -18 -34 -34 -35 -27 -2 -57 -37 -57 -67 0 -11 7 -34
15 -50 15 -28 14 -30 -31 -78 -57 -61 -107 -168 -129 -273 -8 -44 -19 -162
-23 -261 -7 -178 -8 -182 -37 -230 -17 -26 -51 -64 -75 -83 -52 -40 -55 -64
-16 -116 41 -53 85 -68 185 -62 76 4 207 39 228 61 3 3 -5 15 -20 26 -25 20
-77 112 -77 137 0 6 21 -10 46 -38 28 -29 73 -62 113 -82 59 -29 74 -32 156
-32 82 0 97 3 157 33 43 21 83 51 114 85 36 40 45 46 39 27 -17 -57 -34 -87
-65 -118 -18 -18 -31 -34 -29 -36 36 -31 173 -66 254 -66 93 0 141 26 174 94
24 48 24 50 6 60 -43 25 -105 91 -126 133 -19 40 -23 70 -30 242 -5 108 -13
216 -19 241 -28 118 -85 227 -142 275 l-29 25 16 46 c19 57 5 94 -40 107 -21
6 -35 20 -48 47 -21 44 -61 65 -112 57 -31 -5 -36 -3 -41 19 -13 49 -75 78
-117 53z"/>
<path d="M3155 3779 c-4 -5 80 -171 187 -367 l194 -357 124 0 125 0 193 354
c106 195 191 360 188 368 -4 11 -96 13 -505 13 -338 0 -502 -3 -506 -11z"/>
<path d="M2053 3645 c-86 -24 -169 -72 -237 -138 -78 -75 -832 -1063 -853
-1117 -44 -110 46 -239 166 -240 91 0 112 19 317 287 169 219 189 242 192 217
5 -41 -4 -205 -13 -231 l-7 -23 576 0 c317 0 576 1 576 3 0 2 -7 24 -15 49
-11 32 -15 75 -13 148 l3 104 115 -144 c71 -89 128 -150 150 -162 30 -16 60
-18 222 -18 l188 0 0 180 0 180 -118 0 -118 0 -298 380 c-303 388 -346 434
-448 484 -114 55 -271 71 -385 41z"/>
<path d="M3560 2514 l0 -376 29 -29 c57 -56 149 -30 171 49 6 22 10 177 10
385 l0 347 -105 0 -105 0 0 -376z"/>
<path d="M1573 2283 c-3 -10 -12 -33 -19 -52 -8 -18 -14 -35 -14 -37 0 -2 57
-4 126 -4 l126 0 -26 -31 c-35 -41 -35 -91 0 -126 24 -24 24 -26 9 -43 -27
-30 -22 -87 11 -121 22 -23 25 -32 16 -41 -17 -17 -15 -80 4 -106 9 -13 27
-27 40 -32 17 -7 24 -17 24 -35 0 -39 28 -74 69 -85 26 -7 40 -18 49 -40 16
-36 41 -51 85 -52 18 -1 44 -10 60 -22 35 -26 91 -25 120 2 13 13 35 20 54 20
39 -1 81 25 93 57 6 15 21 27 37 31 42 10 73 43 79 86 4 21 12 38 19 38 16 0
51 40 59 67 4 12 1 37 -7 55 -14 32 -13 35 9 55 33 30 40 68 20 110 -16 34
-16 37 2 57 10 11 22 30 26 40 9 27 -11 83 -37 101 -20 14 -10 15 106 15 70 0
127 4 127 8 0 5 -7 29 -16 55 l-16 47 -614 0 c-576 0 -615 -1 -621 -17z"/>
<path d="M1495 2068 c-202 -576 -287 -825 -287 -849 -1 -19 7 -39 21 -52 20
-21 32 -22 216 -25 l195 -3 0 -458 c0 -386 2 -466 16 -510 29 -98 131 -171
238 -171 89 0 203 86 226 169 6 22 10 226 10 504 l0 467 60 0 60 0 0 -450 c0
-274 4 -468 10 -497 31 -140 187 -227 317 -178 59 23 121 79 144 130 17 37 19
77 19 517 l0 477 201 3 c197 3 201 3 220 27 10 13 19 34 19 48 0 13 -66 213
-147 444 l-148 419 -65 0 -65 0 -13 -40 c-6 -22 -12 -65 -12 -95 0 -31 -7 -72
-15 -92 -8 -19 -15 -55 -15 -80 0 -49 -25 -106 -64 -142 -14 -14 -26 -30 -26
-36 0 -22 -59 -94 -90 -110 -17 -9 -48 -33 -69 -54 -25 -25 -54 -42 -87 -50
-27 -7 -61 -19 -76 -27 -49 -26 -118 -29 -173 -6 -28 12 -70 26 -94 32 -26 7
-61 28 -90 54 -25 23 -63 53 -83 66 -21 14 -48 45 -60 69 -13 23 -37 59 -55
78 -31 35 -55 103 -52 153 0 14 -7 45 -16 70 -11 29 -15 60 -11 85 3 23 -1 58
-9 80 l-13 40 -66 3 c-47 2 -68 -1 -71 -10z"/>
</g>
</svg>
