<?xml version="1.0" encoding="UTF-8"?>
<!DOCTYPE svg PUBLIC "-//W3C//DTD SVG 1.1//EN" "http://www.w3.org/Graphics/SVG/1.1/DTD/svg11.dtd">
<!-- Creator: CorelDRAW -->
<svg xmlns="http://www.w3.org/2000/svg" xml:space="preserve" width="116.823mm" height="109.355mm" version="1.1" style="shape-rendering:geometricPrecision; text-rendering:geometricPrecision; image-rendering:optimizeQuality; fill-rule:evenodd; clip-rule:evenodd"
viewBox="0 0 5818.68 5446.71"
 xmlns:xlink="http://www.w3.org/1999/xlink"
 xmlns:xodm="http://www.corel.com/coreldraw/odm/2003">
 <defs>
  <style type="text/css">
   <![CDATA[
    .fil1 {fill:white}
    .fil2 {fill:black;fill-rule:nonzero}
    .fil0 {fill:#00BAF4;fill-rule:nonzero}
   ]]>
  </style>
 </defs>
 <g id="Camada_x0020_1">
  <metadata id="CorelCorpID_0Corel-Layer"/>
  <path class="fil0" d="M1148.8 3201.09c114.16,449.56 586.24,792.33 1049.06,761.71l1508.38 -99.79c462.82,-30.63 922.18,-426.51 1020.81,-879.73l481.95 -2214.84c98.63,-453.23 -199.3,-798.12 -662.04,-766.41l-3297.17 225.87c-462.74,31.7 -747.95,425.46 -633.79,875.03l532.8 2098.17z"/>
  <path class="fil1" d="M4245.63 940.06c-90.25,-160.53 -299.93,-236.24 -580.9,-220.98 158.41,9.87 275.49,68.73 329.38,164.57 150.28,267.25 -251.43,778.25 -897.18,1141.35 -645.79,363.08 -1291.11,440.77 -1441.38,173.52 -67.06,-119.27 -24.21,-287.05 101.2,-468.57 -231.22,266.17 -287.1,530.97 -183.93,714.47 85.6,152.23 281.46,225.39 536.63,224.15 218.57,329.46 539.21,631.01 881.97,886.53 485.17,-438.21 1060.18,-1119.13 1003.21,-1818.95 257.64,-294.9 365.28,-592.89 250.99,-796.09zm-1298.02 1683.49l0 0c-105.59,4.97 -207.35,-10.78 -301.37,-43.69 367.63,-109.96 736.19,-307.4 1036,-547.48 -87.67,326.95 -378.42,574.42 -734.63,591.18z"/>
  <path class="fil1" d="M3522.53 812.88l-504.79 -352.27c-85.97,-59.99 -198.06,-59.33 -274.07,12.89l-348.86 331.49 -9.6 -204.07 -433.95 20.41 27.24 579.21 -507.31 482.04 375.2 -17.43c-76.94,126.52 -99.59,241.15 -52.59,324.73 54.44,96.83 192.5,136.14 376.8,122.59 -30.27,-77.91 -48.64,-161.95 -52.79,-250.04 -20.58,-437.53 317.44,-808.93 754.97,-829.51 286.6,-13.48 544.78,126.91 694.64,348.33 152.62,-186.74 204.11,-394.59 -44.9,-568.37z"/>
  <path class="fil1" d="M2944.77 1867.73c79.05,-42.53 156.73,-88.69 231.67,-138l-237.63 11.18 5.96 126.82z"/>
  <path class="fil1" d="M2624.43 2014.41c83.61,-31.58 169.65,-69.44 256.47,-113.35l-7.39 -157.08 -261.22 12.29 12.14 258.14z"/>
  <polygon class="fil1" points="2608.94,1685.02 2870.16,1672.74 2857.87,1411.51 2596.65,1423.8 "/>
  <polygon class="fil1" points="2935.46,1669.67 3196.68,1657.38 3184.39,1396.16 2923.17,1408.45 "/>
  <path class="fil2" d="M571.83 4237.65c3.04,5.07 6.08,11.91 9.12,20.53 3.04,8.62 4.56,18 4.56,28.14 0,17.24 -4.05,30.93 -12.17,41.06 -8.11,10.14 -19.77,15.21 -34.97,15.21l-413.67 0 0 316.33 393.89 0c3.04,5.07 6.09,11.91 9.12,20.54 3.04,8.62 4.56,18 4.56,28.13 0,17.24 -4.05,30.93 -12.16,41.07 -8.11,10.14 -19.77,15.21 -34.98,15.21l-360.44 0 0 396.94c-5.07,2.03 -12.93,4.05 -23.57,6.08 -10.64,2.03 -21.54,3.04 -32.69,3.04 -45.63,0 -68.44,-18.25 -68.44,-54.75l0 -810.6c0,-20.28 6.09,-36.5 18.25,-48.67 12.17,-12.16 28.39,-18.25 48.67,-18.25l504.91 0zm398.46 845.58c42.58,0 77.81,-4.31 105.7,-12.93 27.88,-8.62 47.9,-16.98 60.07,-25.09l0 -220.52 -188.59 19.77c-52.72,5.07 -91.76,16.98 -117.1,35.74 -25.35,18.76 -38.02,46.39 -38.02,82.88 0,38.53 14.7,68.19 44.1,88.97 29.4,20.78 74.01,31.17 133.83,31.17zm-1.52 -643.3c88.21,0 158.17,19.77 209.87,59.31 51.71,39.54 77.57,101.9 77.57,187.06l0 360.43c0,22.3 -4.31,39.29 -12.93,50.95 -8.62,11.66 -21.55,22.56 -38.78,32.7 -24.33,14.2 -56.53,26.61 -96.57,37.26 -40.05,10.64 -85.93,15.97 -137.63,15.97 -95.31,0 -169.07,-18.76 -221.28,-56.27 -52.22,-37.52 -78.32,-91.76 -78.32,-162.73 0,-66.92 21.8,-117.36 65.39,-151.33 43.6,-33.96 104.94,-55 184.02,-63.11l215.96 -21.29 0 -42.58c0,-50.69 -15.21,-87.7 -45.63,-111.02 -30.41,-23.32 -71.48,-34.98 -123.18,-34.98 -42.59,0 -82.63,6.08 -120.15,18.25 -37.52,12.17 -70.97,25.86 -100.37,41.06 -8.11,-7.1 -15.47,-15.21 -22.05,-24.33 -6.59,-9.12 -9.89,-19.27 -9.89,-30.42 0,-14.2 3.55,-25.86 10.65,-34.98 7.1,-9.12 18.25,-17.74 33.46,-25.86 27.37,-14.19 58.81,-25.09 94.29,-32.69 35.49,-7.61 74.01,-11.41 115.58,-11.41zm488.19 612.89c31.43,-42.59 64.38,-84.15 98.85,-124.71 34.47,-40.56 68.94,-82.13 103.42,-124.71 -42.59,-51.71 -82.12,-100.63 -118.63,-146.76 -36.5,-46.13 -74.01,-94.04 -112.54,-143.71 4.06,-20.28 11.41,-36 22.05,-47.15 10.64,-11.15 24.58,-16.73 41.82,-16.73 17.23,0 30.67,4.31 40.3,12.93 9.63,8.62 20.02,20.02 31.18,34.22 26.36,35.49 53.48,73.25 81.36,113.3 27.88,40.05 57.03,79.84 87.45,119.38 37.52,-47.65 73,-93.03 106.46,-136.11 33.46,-43.09 67.93,-90.49 103.42,-142.2 5.07,-1.02 10.65,-1.52 16.73,-1.52 21.29,0 38.02,4.81 50.19,14.44 12.17,9.63 18.25,22.56 18.25,38.78 0,11.16 -2.28,21.8 -6.84,31.94 -4.56,10.14 -11.91,21.8 -22.05,34.97 -31.43,38.53 -63.62,77.82 -96.57,117.86 -32.95,40.05 -65.65,79.34 -98.1,117.86 39.54,51.71 79.34,102.66 119.38,152.84 40.05,50.19 79.85,100.63 119.39,151.32 -2.03,19.27 -8.62,34.47 -19.77,45.62 -11.15,11.15 -25.86,16.73 -44.1,16.73 -17.23,0 -31.17,-4.31 -41.82,-12.93 -10.65,-8.62 -23.07,-22.05 -37.26,-40.3 -27.37,-36.5 -55.51,-75.28 -84.41,-116.34 -28.89,-41.07 -57.54,-80.86 -85.92,-119.39 -35.49,46.64 -71.22,94.3 -107.22,142.96 -35.99,48.67 -70.72,96.83 -104.18,144.48l-21.29 0c-23.32,0 -40.81,-5.07 -52.47,-15.21 -11.66,-10.14 -17.49,-22.81 -17.49,-38.02 0,-8.11 1.77,-16.48 5.32,-25.09 3.55,-8.62 11.91,-21.55 25.09,-38.78zm883.6 106.45c-5.07,2.03 -12.67,4.31 -22.81,6.84 -10.14,2.54 -21.29,3.81 -33.46,3.81 -43.6,0 -65.4,-18.25 -65.4,-54.75l0 -652.43c5.07,-2.03 12.93,-4.31 23.57,-6.84 10.64,-2.54 22.05,-3.81 34.22,-3.81 42.59,0 63.87,18.76 63.87,56.27l0 650.91zm-139.91 -921.62c0,-21.29 7.35,-39.29 22.05,-53.99 14.7,-14.7 33.71,-22.05 57.03,-22.05 23.32,0 42.08,7.35 56.27,22.05 14.2,14.7 21.29,32.7 21.29,53.99 0,21.29 -7.1,39.29 -21.29,53.99 -14.19,14.7 -32.95,22.05 -56.27,22.05 -23.32,0 -42.33,-7.35 -57.03,-22.05 -14.7,-14.7 -22.05,-32.7 -22.05,-53.99zm863.83 466.9c0,-56.78 -15.97,-98.35 -47.9,-124.71 -31.94,-26.36 -74.77,-39.54 -128.51,-39.54 -40.56,0 -76.55,5.07 -107.98,15.21 -31.43,10.14 -58.3,21.8 -80.6,34.98l0 568.79c-5.07,2.03 -12.68,4.31 -22.81,6.84 -10.14,2.54 -21.29,3.81 -33.46,3.81 -43.6,0 -65.4,-18.25 -65.4,-54.75l0 -518.6c0,-21.29 4.31,-38.79 12.93,-52.47 8.62,-13.69 23.57,-27.12 44.86,-40.3 26.36,-16.22 61.34,-30.93 104.94,-44.1 43.6,-13.18 92.77,-19.77 147.52,-19.77 92.26,0 165.01,20.78 218.24,62.35 53.23,41.57 79.84,106.97 79.84,196.19l0 460.81c-5.07,2.03 -12.93,4.31 -23.57,6.84 -10.65,2.54 -21.55,3.81 -32.7,3.81 -43.6,0 -65.4,-18.25 -65.4,-54.75l0 -410.62zm625.06 310.25c22.3,0 44.36,-2.28 66.15,-6.84 21.8,-4.56 38.28,-10.39 49.43,-17.49l0 -139.92 -124.71 10.65c-32.44,3.04 -58.55,10.39 -78.32,22.05 -19.77,11.66 -29.66,29.15 -29.66,52.47 0,24.34 9.12,43.6 27.37,57.79 18.25,14.2 48.16,21.29 89.73,21.29zm-9.12 -606.81c52.72,0 100.63,5.32 143.72,15.97 43.09,10.65 79.84,27.13 110.26,49.43 30.42,22.3 53.99,50.69 70.72,85.17 16.73,34.47 25.09,75.03 25.09,121.66l0 343.71c0,26.36 -6.84,47.4 -20.53,63.12 -13.69,15.71 -30.16,29.15 -49.42,40.3 -31.43,19.27 -69.96,33.96 -115.58,44.1 -45.62,10.14 -97.33,15.21 -155.13,15.21 -104.43,0 -187.57,-20.02 -249.42,-60.07 -61.85,-40.05 -92.77,-101.14 -92.77,-183.26 0,-69.96 20.78,-123.18 62.35,-159.69 41.57,-36.5 105.45,-59.31 191.62,-68.44l202.27 -21.29 0 -16.73c0,-32.44 -13.18,-56.27 -39.54,-71.48 -26.36,-15.21 -64.38,-22.82 -114.06,-22.82 -38.53,0 -76.3,4.56 -113.3,13.69 -37.01,9.12 -70.21,19.77 -99.61,31.94 -12.17,-8.11 -22.56,-20.53 -31.18,-37.26 -8.62,-16.73 -12.93,-34.73 -12.93,-53.99 0,-44.61 23.32,-76.55 69.95,-95.81 29.41,-11.15 63.62,-19.52 102.66,-25.09 39.03,-5.58 77.31,-8.37 114.82,-8.37zm885.12 777.14c-26.36,0 -50.69,-2.28 -73,-6.84 -22.31,-4.56 -42.59,-10.39 -60.83,-17.49l0 272.23c-10.14,3.04 -24.33,6.08 -42.58,9.12 -18.25,3.04 -38.53,4.56 -60.83,4.56 -45.62,0 -78.58,-7.61 -98.85,-22.82 -20.28,-15.21 -30.42,-44.1 -30.42,-86.68l0 -752.81c0,-26.36 5.58,-47.9 16.73,-64.64 11.15,-16.73 26.87,-31.68 47.14,-44.87 30.42,-19.26 69.45,-35.23 117.1,-47.9 47.66,-12.67 100.38,-19.01 158.17,-19.01 58.8,0 112.79,7.35 161.97,22.05 49.17,14.7 91.5,37.76 126.98,69.2 35.49,31.43 63.12,71.48 82.88,120.15 19.77,48.67 29.66,106.45 29.66,173.37 0,63.88 -9.38,120.4 -28.14,169.57 -18.76,49.17 -44.87,90.24 -78.32,123.18 -33.46,32.95 -73,57.79 -118.63,74.52 -45.62,16.73 -95.3,25.09 -149.04,25.09zm-34.98 -184.02c54.75,0 97.08,-17.24 126.99,-51.71 29.91,-34.47 44.87,-86.68 44.87,-156.64 0,-71.98 -14.45,-123.69 -43.35,-155.12 -28.89,-31.43 -69.2,-47.15 -120.9,-47.15 -23.32,0 -43.6,2.79 -60.83,8.37 -17.23,5.57 -32.95,11.91 -47.14,19.01l0 357.39c14.2,8.11 29.4,14.45 45.62,19.01 16.22,4.56 34.47,6.84 54.75,6.84zm914.02 184.02c-26.36,0 -50.69,-2.28 -73,-6.84 -22.31,-4.56 -42.59,-10.39 -60.83,-17.49l0 272.23c-10.14,3.04 -24.33,6.08 -42.58,9.12 -18.25,3.04 -38.53,4.56 -60.83,4.56 -45.62,0 -78.58,-7.61 -98.85,-22.82 -20.28,-15.21 -30.42,-44.1 -30.42,-86.68l0 -752.81c0,-26.36 5.58,-47.9 16.73,-64.64 11.15,-16.73 26.87,-31.68 47.14,-44.87 30.42,-19.26 69.45,-35.23 117.1,-47.9 47.66,-12.67 100.38,-19.01 158.17,-19.01 58.8,0 112.79,7.35 161.97,22.05 49.17,14.7 91.5,37.76 126.98,69.2 35.49,31.43 63.12,71.48 82.88,120.15 19.77,48.67 29.66,106.45 29.66,173.37 0,63.88 -9.38,120.4 -28.14,169.57 -18.76,49.17 -44.87,90.24 -78.32,123.18 -33.46,32.95 -73,57.79 -118.63,74.52 -45.62,16.73 -95.3,25.09 -149.04,25.09zm-34.98 -184.02c54.75,0 97.08,-17.24 126.99,-51.71 29.91,-34.47 44.87,-86.68 44.87,-156.64 0,-71.98 -14.45,-123.69 -43.35,-155.12 -28.89,-31.43 -69.2,-47.15 -120.9,-47.15 -23.32,0 -43.6,2.79 -60.83,8.37 -17.23,5.57 -32.95,11.91 -47.14,19.01l0 357.39c14.2,8.11 29.4,14.45 45.62,19.01 16.22,4.56 34.47,6.84 54.75,6.84z"/>
 </g>
</svg>
